# xmcd
#
# Track frame offsets: 
#        150
#        14025
#        26346
#        39670
#        52504
#        67780
#        81334
#        96562
#        110918
#        125188
#        139049
#        153186
#        167614
#        183977
#        200481
#        217237
#        232455
#        245683
#        258655
#        271810
#        286371
#
# Disc length: 4000 seconds
#
# Revision: 0
# Processed by: cddbd v1.5.2PL0 Copyright (c) Steve Scherf et al.
# Submitted via: ExactAudioCopy v1.0b3
#
DISCID=400f9e15
DTITLE=Blues Various - Best of Blues
DYEAR=1900
DGENRE=Blues
TTITLE0=Lonnie Johnson - Have To Change Keys (To Play These Blues)
TTITLE1=Lonnie Johnson - Mr. Johnson's Blues
TTITLE2=Lonnie Johnson - Mean Old Bedbug Blues
TTITLE3=Lonnie Johnson - Toothache Blues Pt. 1
TTITLE4=Lonnie Johnson - Toothache Blues Pt. 2
TTITLE5=Lonnie Johnson - Sweet Potato Blues
TTITLE6=Blind Willie Johnson - Dark Was The Night, Cold Was The Ground
TTITLE7=Blind Willie Johnson - If I Had My Way I'd Tear The Building D
TTITLE7=own
TTITLE8=Blind Willie Johnson - Trouble Will Soon Be Over
TTITLE9=Blind Willie Johnson - I Know His Blood Can Make Me Whole
TTITLE10=Blind Willie Johnson - Everyone Ought To Treat A Stranger Rig
TTITLE10=ht
TTITLE11=Blind Willie Johnson - It's Nobody's Fault But Mine
TTITLE12=Tommy Johnson - Cool Drink Of Water Blues
TTITLE13=Tommy Johnson - Maggie Campbell Blues
TTITLE14=Tommy Johnson - Canned Heat Blues
TTITLE15=Tommy Johnson - Alcohol And Jake Blues
TTITLE16=Skip James - If You Haven't Any Hay Get On Down The Road
TTITLE17=Skip James - 22-20 Blues
TTITLE18=Skip James - How Long "Buck"
TTITLE19=Skip James - Cypress Grove Blues
TTITLE20=Skip James - Devil Got My Woman
EXTD=
EXTT0=
EXTT1=
EXTT2=
EXTT3=
EXTT4=
EXTT5=
EXTT6=
EXTT7=
EXTT8=
EXTT9=
EXTT10=
EXTT11=
EXTT12=
EXTT13=
EXTT14=
EXTT15=
EXTT16=
EXTT17=
EXTT18=
EXTT19=
EXTT20=
PLAYORDER=
